<svg xmlns="http://www.w3.org/2000/svg" viewBox="0 0 48.38 44.74"><defs><style>.cls-1{fill:#fff;}</style></defs><g id="Layer_2" data-name="Layer 2"><g id="Layer_1-2" data-name="Layer 1"><g id="Iw7Z60.tif"><path class="cls-1" d="M19,28.85c.83-.84,1.67-1.69,2.52-2.53.69-.7,1-.7,1.7,0a14.24,14.24,0,0,0,13.27,4A15,15,0,0,0,48,12.17,16.11,16.11,0,0,0,43.26,4a13.53,13.53,0,0,0-19.14-.05.79.79,0,0,0-.16.67c.14.31.43.21.69,0,.75-.48,1.5-1,2.28-1.41a10.46,10.46,0,0,1,10.17-.2,15.14,15.14,0,0,1,4,3.29A10.76,10.76,0,0,1,44.33,13a10.6,10.6,0,0,1-4.81,10.45,10.93,10.93,0,0,1-14-1.25c-1-1-2.09-1.94-3.09-2.86L16,25.81Zm-5.27-2.66L7.88,32.05l-6.8,6.8a3.33,3.33,0,0,0-1,3.23,3.19,3.19,0,0,0,2.43,2.53,3.29,3.29,0,0,0,3.35-.91L18.32,31.24c.09-.09.16-.18.21-.24Z"/><path class="cls-1" d="M19,28.85l-3-3,6.49-6.51c1,.92,2.06,1.88,3.09,2.86a10.93,10.93,0,0,0,14,1.25A10.6,10.6,0,0,0,44.33,13a10.76,10.76,0,0,0-3.22-6.62,15.14,15.14,0,0,0-4-3.29,10.46,10.46,0,0,0-10.17.2c-.78.43-1.53.93-2.28,1.41-.26.16-.55.26-.69,0a.79.79,0,0,1,.16-.67A13.53,13.53,0,0,1,43.26,4,16.11,16.11,0,0,1,48,12.17,15,15,0,0,1,36.49,30.26a14.24,14.24,0,0,1-13.27-4c-.7-.67-1-.67-1.7,0C20.67,27.16,19.83,28,19,28.85Z"/><path class="cls-1" d="M13.73,26.19,18.53,31c-.05.06-.12.15-.21.24L5.87,43.7a3.29,3.29,0,0,1-3.35.91A3.19,3.19,0,0,1,.09,42.08a3.33,3.33,0,0,1,1-3.23l6.8-6.8Z"/></g></g></g></svg>