<svg xmlns="http://www.w3.org/2000/svg" viewBox="0 0 55.45 47.01"><defs><style>.cls-1{fill:#f1f2f2;}</style></defs><g id="Layer_2" data-name="Layer 2"><g id="Layer_1-2" data-name="Layer 1"><g id="_1yB59i.tif" data-name="1yB59i.tif"><path class="cls-1" d="M0,0C2.36.76,4.82.64,7.25.87a17,17,0,0,1,7.36,2c3.67,2.21,5.77,5.36,5.58,9.77a7.48,7.48,0,0,1-.54,2.1C16.11,9.8,11.31,6.55,6.12,3.79L6,3.91l.69.63c2.84,2.65,5.71,5.29,8.53,8,1.39,1.32,2.75,2.67,4,4.1a16.94,16.94,0,0,1,3.87,8.64c.22,1.23.31,2.47.46,3.71a1.85,1.85,0,0,0,.17.63c.24-.81.46-1.62.72-2.42a22.88,22.88,0,0,1,3.77-7.45,14.11,14.11,0,0,1,6.1-4.53c4.48-1.66,8.95-3.39,13.42-5.09a4,4,0,0,0,.8-.4C42.7,10.24,37,11.38,32,14.63l-.16-.08A12.12,12.12,0,0,1,32,12.84a9.73,9.73,0,0,1,5.64-6.35,13,13,0,0,1,9.17-.44c2.33.65,4.62,1.43,6.93,2.13.55.16,1.13.22,1.69.33a.12.12,0,0,1,0,.08l-5.7,5.17a19.71,19.71,0,0,1-9.26,4.83,8.2,8.2,0,0,1-6.76-1.42,14.94,14.94,0,0,0-5.44,5.47,33,33,0,0,0-3.5,9.79c-.11.51-.21,1-.34,1.61.17-.1.29-.16.39-.23a5.66,5.66,0,0,1,4.81-.5,2.67,2.67,0,0,1,1.75,1.85c.12.34.21.69.32,1.05.5-.15,1-.3,1.46-.41a2.79,2.79,0,0,1,3.31,1.54,24.72,24.72,0,0,1,.89,2.6,3.52,3.52,0,0,1,4.12,3.38,2.8,2.8,0,0,1-1.13,2.14c-.63.56-1.33,1-2,1.55H36c-.25,0-.5-.06-.75-.06l-26-.05H8.71a3.47,3.47,0,0,1-3.35-3.62,3.83,3.83,0,0,1,4.32-3.34A5.68,5.68,0,0,1,12,36a5,5,0,0,1,4.54-.54c1.67-2.47,3.12-3,5.47-1.93,0-.13,0-.25,0-.37a38.58,38.58,0,0,0-.77-8.3,16.5,16.5,0,0,0-4.1-8.17.71.71,0,0,0-.75-.24,7.69,7.69,0,0,1-5.2-.73,16.55,16.55,0,0,1-6.56-6.4C3.61,7.55,2.88,5.57,2,3.7,1.34,2.48.65,1.3,0,.11Z"/></g></g></g></svg>