<svg xmlns="http://www.w3.org/2000/svg" viewBox="0 0 56.89 58.54"><defs><style>.cls-1{fill:#f1f2f2;}</style></defs><g id="Layer_2" data-name="Layer 2"><g id="Layer_1-2" data-name="Layer 1"><g id="ZzvqG7.tif"><path class="cls-1" d="M20.28,40.15l.63-8.09a4.45,4.45,0,0,1,2.56,3c1.54-.15,3.07-.29,4.59-.46a.85.85,0,0,0,.57-.32c1.06-1.74,2.1-3.5,3.16-5.28l-5-4.67,1.3-2.16q4.8-8,9.6-15.9A6.34,6.34,0,0,0,38.18,5a3.7,3.7,0,0,0,.08-.48c.51-2.2,1.44-4,3.59-4.46a5.82,5.82,0,0,1,6.08,3.12,14.06,14.06,0,0,1,1.38,7.61c-.07,1.35-.11,1.35,1,2l5.22,3.12a2.69,2.69,0,0,1,1.33,3.16A30.57,30.57,0,0,1,52,31.28a24.53,24.53,0,0,1-7,7.48,2.08,2.08,0,0,1-2.65.05,1.39,1.39,0,0,0-.76-.19l-8.28-.48c-3.07-.18-6.14-.34-9.21-.54a1,1,0,0,0-1.18.63A4,4,0,0,1,20.28,40.15ZM47,10.91A13.38,13.38,0,0,0,46.78,6a4.87,4.87,0,0,0-2.51-3.41c-1.83-.85-3.58.15-4.07,2.31-.1.45-.1.92-.17,1.38a.71.71,0,0,0,.42.81c1.88,1.08,3.75,2.19,5.62,3.29ZM36.81,33.75l-4.06-3.83-2.67,4.47Z"/><path class="cls-1" d="M26.65,22.76c.41-1.38.77-2.77,1.24-4.12.81-2.33,1.68-4.64,2.56-6.94a1.92,1.92,0,0,1,.67-.84,9.64,9.64,0,0,1,3.79-1.61L26.76,22.82Z"/><path class="cls-1" d="M17.67,39.37c.19-2.35.41-4.87.59-7.4,0-.73.42-.72.89-.69s.87.19.83.85c-.08,1.23-.18,2.45-.28,3.68s-.22,2.6-.32,3.89c-.06.88-.18,1-.77,1C17.69,40.63,17.62,40.55,17.67,39.37Z"/><path class="cls-1" d="M11.93,33.45c-.12-.13-.41-.3-.43-.5a.88.88,0,0,1,.36-.67A2.42,2.42,0,0,1,13,32a.63.63,0,0,1,.47.45.87.87,0,0,1-.31.7A5.15,5.15,0,0,1,11.93,33.45Z"/><path class="cls-1" d="M9.19,34.43a1.42,1.42,0,0,1-.25.4,2.36,2.36,0,0,1-.85.54c-.22.06-.49-.13-.73-.2a2.28,2.28,0,0,1,.22-.8,3,3,0,0,1,.88-.61C8.86,33.54,9.21,33.83,9.19,34.43Z"/><path class="cls-1" d="M4.57,39.12a.58.58,0,0,1-.51-.82,4.17,4.17,0,0,1,.75-1.08c.14-.14.46-.06.7-.07a2.16,2.16,0,0,1,0,.8,3.48,3.48,0,0,1-.59.88A1.62,1.62,0,0,1,4.57,39.12Z"/><path class="cls-1" d="M10,39.77c-.41.48-.78.95-1.19,1.35-.06.06-.38-.13-.49-.28a.65.65,0,0,1,0-.56,5.26,5.26,0,0,1,.7-1,.55.55,0,0,1,.54-.09C9.7,39.22,9.79,39.47,10,39.77Z"/><path class="cls-1" d="M.73,48.21A6.81,6.81,0,0,1,1,46.94c.09-.22.4-.5.54-.46a.8.8,0,0,1,.43.63,2.67,2.67,0,0,1-.18,1.15c-.08.21-.39.48-.56.45S.84,48.34.73,48.21Z"/><path class="cls-1" d="M9.51,56.66A2.31,2.31,0,0,1,9.66,56a.52.52,0,0,1,.48-.19.63.63,0,0,1,.36.4,3.59,3.59,0,0,1,.12,1.17c0,.26-.28.48-.44.72a2.34,2.34,0,0,1-.53-.56A3.5,3.5,0,0,1,9.51,56.66Z"/><path class="cls-1" d="M11.16,46.67A7.14,7.14,0,0,1,10.82,48a.69.69,0,0,1-.62.34.84.84,0,0,1-.35-.66,3,3,0,0,1,.33-1.17.65.65,0,0,1,.58-.31C10.93,46.22,11.06,46.53,11.16,46.67Z"/><path class="cls-1" d="M1.3,52.66c0,.56.11,1.3-.58,1.23s-.45-.79-.44-1.3a1.23,1.23,0,0,1,0-.2c0-.45.12-.82.57-.78s.48.42.43.83A1.57,1.57,0,0,0,1.3,52.66Z"/><path class="cls-1" d="M16.72,39.86a1.83,1.83,0,0,1-.37.45,2.21,2.21,0,0,1-.84.39c-.19,0-.56-.08-.59-.21a1,1,0,0,1,.14-.78,3,3,0,0,1,1-.54C16.49,39,16.67,39.31,16.72,39.86Z"/><path class="cls-1" d="M1.8,43.08a12.56,12.56,0,0,1,.6-1.39A.55.55,0,0,1,3,41.54a.73.73,0,0,1,.27.58,4.13,4.13,0,0,1-.46,1.26.67.67,0,0,1-.62.22C2,43.56,1.92,43.26,1.8,43.08Z"/><path class="cls-1" d="M12,43.87a.46.46,0,0,1-.35-.71,4.16,4.16,0,0,1,.81-1.2c.29-.29.59-.07.73.3S12.51,43.89,12,43.87Z"/><path class="cls-1" d="M7.64,43.82a7.7,7.7,0,0,1-.53,1.31.61.61,0,0,1-.62.18.86.86,0,0,1-.23-.67,2.59,2.59,0,0,1,.36-1c.11-.18.4-.37.55-.33S7.5,43.65,7.64,43.82Z"/><path class="cls-1" d="M6.41,48.49a6.2,6.2,0,0,1-.28,1.28.7.7,0,0,1-.61.34c-.14,0-.33-.39-.34-.61a2.45,2.45,0,0,1,.18-1c.09-.22.36-.53.51-.5S6.25,48.33,6.41,48.49Z"/><path class="cls-1" d="M11.93,38c-.18-.17-.42-.28-.46-.44a.87.87,0,0,1,.13-.67,3.87,3.87,0,0,1,1.09-.6.53.53,0,0,1,.5.24.71.71,0,0,1,0,.61A13.29,13.29,0,0,1,11.93,38Z"/><path class="cls-1" d="M4.74,54c.08-.45-.13-1.18.55-1.14s.54.71.47,1.24c0,.14,0,.32,0,.41a6.63,6.63,0,0,1-.52.54,4.53,4.53,0,0,1-.45-.63C4.69,54.33,4.74,54.16,4.74,54Z"/><path class="cls-1" d="M16.52,36.48c-.12,0-.27.06-.36,0a7.39,7.39,0,0,1-.59-.54c.19-.2.35-.47.57-.56a1.05,1.05,0,0,1,.78,0c.23.09.4.35.6.53a6.75,6.75,0,0,1-.64.56C16.79,36.54,16.64,36.48,16.52,36.48Z"/><path class="cls-1" d="M9.39,52.11c.08-.4-.21-1.15.51-1.11s.43.71.46,1.16c0,.16.05.38,0,.47a4.53,4.53,0,0,1-.6.56,5.49,5.49,0,0,1-.34-.63A1.3,1.3,0,0,1,9.39,52.11Z"/><path class="cls-1" d="M16.82,33c-.37,0-.76-.06-.79-.6a.55.55,0,0,1,.67-.6c.35,0,.81,0,.81.62S17.24,33,16.82,33Z"/><path class="cls-1" d="M0,57.62c.35-.34.57-.72.81-.74.44,0,.48.43.48.86s-.12.88-.55.79C.5,58.48.33,58,0,57.62Z"/></g></g></g></svg>