<svg xmlns="http://www.w3.org/2000/svg" viewBox="0 0 41.37 41.36"><defs><style>.cls-1{fill:#f1f2f2;}</style></defs><g id="Layer_2" data-name="Layer 2"><g id="Layer_1-2" data-name="Layer 1"><g id="CkquKY.tif"><path class="cls-1" d="M36.81,41.36a.81.81,0,0,0-.12-.14Q31.83,36.35,27,31.49a1.53,1.53,0,0,1-.1-2.26l-3.49-3.48-.46.34a14.27,14.27,0,0,1-6.05,2.56,14,14,0,0,1-4.29.09,14.21,14.21,0,0,1-8.7-4.46A14.1,14.1,0,0,1,.3,17.41c-.13-.59-.18-1.2-.27-1.8a.9.9,0,0,0,0-.16V13.38c0-.27.07-.53.1-.8A14,14,0,0,1,1.85,7.33,14.27,14.27,0,0,1,9.76.76,14.08,14.08,0,0,1,14.23,0a13.74,13.74,0,0,1,5.42,1,14.21,14.21,0,0,1,8.81,10.13,13.54,13.54,0,0,1,.34,4.53,14.42,14.42,0,0,1-3.12,7.82l-.1.12L29,27.05a1.55,1.55,0,0,1,.83-.43,1.53,1.53,0,0,1,1.4.48c1.4,1.41,2.81,2.8,4.21,4.2l5.76,5.77a.48.48,0,0,1,0,.65l-3.5,3.5a1.71,1.71,0,0,0-.11.14ZM14.42,25.82A11.39,11.39,0,1,0,3,14.52,11.41,11.41,0,0,0,14.42,25.82Z"/></g></g></g></svg>