<svg xmlns="http://www.w3.org/2000/svg" viewBox="0 0 65.19 62.6"><defs><style>.cls-1,.cls-3{fill:#fff;}.cls-1,.cls-2,.cls-3{stroke:#fff;stroke-miterlimit:10;}.cls-1{stroke-width:3px;}.cls-2{fill:#be1e2d;}</style></defs><g id="Layer_2" data-name="Layer 2"><g id="Layer_1-2" data-name="Layer 1"><path class="cls-1" d="M46.09,26.79a13.71,13.71,0,0,0-7.92-8.53,14.36,14.36,0,0,0-5.58-1.11A14.52,14.52,0,0,0,27,18.25a13.81,13.81,0,0,0-7.94,8.52,13.21,13.21,0,0,0-.61,3.95,12.85,12.85,0,0,0,.63,4,14.28,14.28,0,0,0,27-.09,13.18,13.18,0,0,0,.59-3.89A12.77,12.77,0,0,0,46.09,26.79ZM32.6,40.64a10.12,10.12,0,0,1-10.31-9.92A10.12,10.12,0,0,1,32.6,20.79a10.12,10.12,0,0,1,10.32,9.93A10.12,10.12,0,0,1,32.6,40.64Z"/><polygon class="cls-2" points="32.59 1.58 27 18.31 38.19 18.31 32.59 1.58"/><polygon class="cls-3" points="32.59 61.02 38.19 44.29 27 44.29 32.59 61.02"/><polygon class="cls-3" points="1.69 30.75 19.09 36.11 19.08 25.35 1.69 30.75"/><polygon class="cls-3" points="63.5 30.68 46.1 25.32 46.11 36.08 63.5 30.68"/></g></g></svg>