<svg xmlns="http://www.w3.org/2000/svg" viewBox="0 0 49.16 49.46"><defs><style>.cls-1{fill:#fff;stroke:#fff;stroke-miterlimit:10;stroke-width:3px;}</style></defs><g id="Layer_2" data-name="Layer 2"><g id="Layer_1-2" data-name="Layer 1"><path class="cls-1" d="M47.66,27.54V21.92l-7.54-1.79a16.59,16.59,0,0,0-1.63-3.82l.92,1,4-5.93L39.63,7.21l-6.36,3.22.93,1a16.55,16.55,0,0,0-6.85-3.08h1.38L26.92,1.5H21.3L19.49,8.39h1.38A16.54,16.54,0,0,0,14.71,11l1-1L9.49,6.46l-3.93,4,3.65,6.12,1-1a16.07,16.07,0,0,0-1.81,3.67L1.5,21.08V26.7l6.35,1.67a16.29,16.29,0,0,0,1.89,4.78l-.92-1L4.87,38.05l3.73,4.2L15,39,14,38a16.42,16.42,0,0,0,6.82,3.07H19.49L21.3,48h5.62l1.81-6.89H27.36a16.4,16.4,0,0,0,6.15-2.58l-1,1L38.73,43l3.94-4L39,32.87l-1,1a16.6,16.6,0,0,0,2.08-4.52ZM24.11,35.37A10.64,10.64,0,1,1,34.75,24.73,10.64,10.64,0,0,1,24.11,35.37Z"/></g></g></svg>