<svg xmlns="http://www.w3.org/2000/svg" viewBox="0 0 55.02 55.13"><defs><style>.cls-1{fill:#fff;stroke:#fff;stroke-miterlimit:10;}</style></defs><g id="Layer_2" data-name="Layer 2"><g id="Layer_1-2" data-name="Layer 1"><g id="DK9U1u.tif"><path class="cls-1" d="M19.64,54.63c-.71-.07-1.42-.15-2.14-.21A35.77,35.77,0,0,1,6.7,52,12.56,12.56,0,0,1,2,48.78,7,7,0,0,1,.53,43.4,22.41,22.41,0,0,1,11.3,25.48a1.11,1.11,0,0,1,1.32.16,17.25,17.25,0,0,0,7,3,17.59,17.59,0,0,0,13.47-2.83,1.3,1.3,0,0,1,1.86,0,21.9,21.9,0,0,1,6.42,6.19.66.66,0,0,0,.69.32,11.18,11.18,0,0,1,8.91,3,10.82,10.82,0,0,1,3.42,6.5c0,.13.07.27.1.4v2.43c0,.1-.08.19-.1.29a11.13,11.13,0,0,1-7.75,9.21,20.58,20.58,0,0,1-2.19.54H42.05a3.57,3.57,0,0,0-.35-.1A10,10,0,0,1,37.43,53a.91.91,0,0,0-.87-.11A39.39,39.39,0,0,1,29,54.32l-3.14.31ZM34.84,51c-2.6-3.14-3.6-6.51-2.65-10.3a11.19,11.19,0,0,1,6.94-7.84A2.63,2.63,0,0,0,39,32.6a21,21,0,0,0-4.47-4.45.8.8,0,0,0-1,0c-7.11,4.13-14.23,4.18-21.33,0a.73.73,0,0,0-1,0A20.18,20.18,0,0,0,2.68,44.57,3.75,3.75,0,0,0,3.51,47,8.87,8.87,0,0,0,7,49.56a32.56,32.56,0,0,0,10.45,2.52A50.31,50.31,0,0,0,29.17,52C31,51.73,32.87,51.34,34.84,51Zm8.4,1.37a9,9,0,1,0-9-8.91A9.06,9.06,0,0,0,43.24,52.37Z"/><path class="cls-1" d="M22.93,23.31A11.41,11.41,0,1,1,34.34,12,11.43,11.43,0,0,1,22.93,23.31ZM23,2.78a9.13,9.13,0,1,0,9.11,9.15A9.14,9.14,0,0,0,23,2.78Z"/><path class="cls-1" d="M44.38,44.53l.17,0c.86,0,1.73,0,2.59,0,1,0,1.54-.36,1.54-1.15s-.49-1.13-1.55-1.12H44.38V39.08a1.13,1.13,0,0,0-2.26-.1c0,.39,0,.78,0,1.16v2.08h-3a1.15,1.15,0,0,0-1.09.51,1.13,1.13,0,0,0,1,1.75h3.13c0,1,0,2,0,3,0,.82.45,1.3,1.14,1.29s1.12-.48,1.13-1.3Z"/><path class="cls-1" d="M44.38,44.53v3c0,.82-.42,1.29-1.13,1.3s-1.13-.47-1.14-1.29c0-1,0-2,0-3H39a1.13,1.13,0,0,1-1-1.75,1.15,1.15,0,0,1,1.09-.51h3V40.14c0-.38,0-.77,0-1.16a1.13,1.13,0,0,1,2.26.1v3.14h2.75c1.06,0,1.55.34,1.55,1.12s-.49,1.15-1.54,1.15c-.86,0-1.73,0-2.59,0Z"/></g></g></g></svg>