<svg xmlns="http://www.w3.org/2000/svg" viewBox="0 0 48.41 41.07"><defs><style>.cls-1{fill:#fff;}</style></defs><g id="Layer_2" data-name="Layer 2"><g id="Layer_1-2" data-name="Layer 1"><g id="O3K2bf.tif"><path class="cls-1" d="M32.33,29.16a13.49,13.49,0,0,0-3-.18Q17.22,29,5.16,29C2.43,29,.39,31.21,0,34.52a6.08,6.08,0,0,0,3.81,6.39,2.66,2.66,0,0,1,.39.16H32.05A1.15,1.15,0,0,1,32.3,41a5.92,5.92,0,0,0,4-5.84C36.32,32.23,34.71,29.73,32.33,29.16ZM6.06,37.44a2.29,2.29,0,0,1-2-2.44,2.24,2.24,0,0,1,2-2.36,2.19,2.19,0,0,1,2,2.39A2.24,2.24,0,0,1,6.06,37.44Zm6,0a2.27,2.27,0,0,1-2-2.4,2.23,2.23,0,0,1,2-2.4,2.18,2.18,0,0,1,2,2.41A2.21,2.21,0,0,1,12.09,37.44Zm6.07,0a2.25,2.25,0,0,1-2-2.42,2.21,2.21,0,0,1,2-2.38,2.19,2.19,0,0,1,2,2.44A2.22,2.22,0,0,1,18.16,37.44Zm6,0a2.24,2.24,0,0,1-2-2.42,2.19,2.19,0,0,1,2-2.38,2.21,2.21,0,0,1,2,2.44A2.23,2.23,0,0,1,24.2,37.44Zm6.05,0a2.22,2.22,0,0,1-2-2.41,2.18,2.18,0,0,1,2-2.39,2.22,2.22,0,0,1,2,2.42A2.25,2.25,0,0,1,30.25,37.44Z"/><path class="cls-1" d="M48.41,38.12v3H38.29V15.74h2.07c0,.84,0,1.67,0,2.5a39.14,39.14,0,0,0,1.71,11,16.26,16.26,0,0,0,4.78,7.89A14.49,14.49,0,0,0,48.41,38.12Z"/><path class="cls-1" d="M35.28,17.13c0-1.67-.81-2.62-2.21-2.62H27.22V4.86h-2v9.59a1.13,1.13,0,0,1-.24.05H18.48c-.34,0-.38-.23-.45-.51Q16.57,8.75,15.1,3.5C14.48,1.28,13,0,11.09,0c-2.95,0-5.9,0-8.84,0C1.09,0,0,.94,0,2.68,0,9.77,0,16.85,0,23.94c0,1.65.82,2.64,2.21,2.64H33.09c1.4,0,2.18-1,2.19-2.65ZM2.07,13.27V2.44h8.32c1.25,0,1.88.55,2.27,2,.77,2.77,1.53,5.54,2.3,8.31,0,.18.09.35.14.55Z"/></g></g></g></svg>