<svg xmlns="http://www.w3.org/2000/svg" viewBox="0 0 45.94 43.77"><defs><style>.cls-1{fill:#f1f2f2;}</style></defs><g id="Layer_2" data-name="Layer 2"><g id="Layer_1-2" data-name="Layer 1"><g id="tPqzv5.tif"><path class="cls-1" d="M45.64,21a1.06,1.06,0,0,1-.76.38A4.69,4.69,0,0,1,43.51,21c-1-.4-1.72.05-1.72,1.16V43c0,.68-.07.75-.73.75H29.44V27.28c0-.17,0-.36,0-.53a1.13,1.13,0,0,0-1.24-1.34h-10c-1.47,0-1.69.21-1.69,1.66V43.76h-4.1c-2.51,0-5,0-7.51,0-.68,0-.75-.06-.75-.72q0-10.42,0-20.86c0-1.12-.65-1.57-1.7-1.17-.31.11-.62.2-.94.28s-.85.22-1.16-.21a1.44,1.44,0,0,1-.19-1.61,2.39,2.39,0,0,1,.5-.6L21.85.52A1.37,1.37,0,0,1,23.94.45q4.06,3.46,8.12,7,6.59,5.69,13.16,11.4C46,19.5,46.17,20.27,45.64,21Z"/></g></g></g></svg>