<svg xmlns="http://www.w3.org/2000/svg" viewBox="0 0 189 136.7"><defs><style>.cls-1{fill:#f1f2f2;}</style></defs><g id="Layer_2" data-name="Layer 2"><g id="Layer_1-2" data-name="Layer 1"><g id="Rq9ac1.tif"><path class="cls-1" d="M61.61,0h2.22c2.54.39,5.14.58,7.63,1.19,19.3,4.7,31.33,23.19,28.91,42.6a38.08,38.08,0,0,1-14.3,25.43c-.41.33-.81.68-1.12.94l12.6,6.45a50.85,50.85,0,0,1,22.07-18.36,31.7,31.7,0,0,1-3.17-45.08A30.29,30.29,0,0,1,158.3,9.82,30.64,30.64,0,0,1,169.71,32c.76,10.5-3.16,19.17-10.94,26.29l1.21.6a50.37,50.37,0,0,1,26.65,29.51c1,2.67,1.59,5.45,2.37,8.18v4.16c-.08.11-.21.21-.24.33-1,5.84-6.4,10.3-13.26,10.24-16.83-.16-33.66-.05-50.5-.05h-1.73c.34,1.25.68,2.35,1,3.47.8,3.41,1.69,6.8.94,10.37a14.1,14.1,0,0,1-12.63,11.43c-5.39.34-10.81.19-16.22.19H15.42a15.27,15.27,0,0,1-8.83-2.33C1.29,130.79-1,124.92.43,118.07c4.18-19.58,15-34.36,32.48-44.16,2.44-1.36,5-2.42,7.64-3.66-.21-.2-.4-.38-.61-.55C28,59.94,23.11,47.38,25.27,32.14S40.13,3.79,55.32.86C57.39.46,59.51.28,61.61,0Zm1.14,125.58q23.39,0,46.76,0a11.41,11.41,0,0,0,1.66-.07,3.43,3.43,0,0,0,3.07-4.36c-.39-1.76-.79-3.51-1.29-5.24C104.06,85,71,69,41.85,81.91c-16.43,7.27-26.31,20.23-30.41,37.66-.08.35-.08.73-.14,1.09-.57,3.27.8,4.92,4.14,4.92Q39.1,125.6,62.75,125.58ZM62.68,11.19l-.08-.37c-3.09.7-6.3,1.07-9.24,2.16-16,5.88-22.5,25.81-13.34,40.53,8.18,13.13,24.92,16.92,37.54,8.1,9.64-6.73,13.34-16.3,11.52-27.92C87.09,21,75.45,11.08,62.68,11.19Zm43.51,72.54c.33.36.59.67.88,1A62,62,0,0,1,117.9,99a2,2,0,0,0,2,1.16q27.12-.06,54.24,0c3.37,0,4.17,0,3.19-4-6.43-26.61-35.67-39-58.73-24.89A38,38,0,0,0,106.19,83.73Zm32.95-69.61a19.89,19.89,0,0,0-19.53,20,19.91,19.91,0,0,0,19.52,20.17c10.58.1,19.55-9,19.62-19.94C158.81,23.25,150,14.11,139.14,14.12Z"/></g></g></g></svg>