<svg xmlns="http://www.w3.org/2000/svg" viewBox="0 0 48.11 52.95"><defs><style>.cls-1{fill:#fff;}</style></defs><g id="Layer_2" data-name="Layer 2"><g id="Layer_1-2" data-name="Layer 1"><path class="cls-1" d="M45.09,53H3a3,3,0,0,1-3-3l2.86-30.3a2.92,2.92,0,0,1,2.66-3.12H42.59a2.91,2.91,0,0,1,2.65,3.12l2.87,30.3A3,3,0,0,1,45.09,53Z"/><path class="cls-1" d="M24.05,0C14.59,0,6.92,9.11,6.92,20.35s7.67,20.36,17.13,20.36S41.18,31.6,41.18,20.35,33.51,0,24.05,0Zm0,37.85c-8.13,0-14.72-7.83-14.72-17.5S15.92,2.86,24.05,2.86s14.73,7.83,14.73,17.49S32.18,37.85,24.05,37.85Z"/><path class="cls-1" d="M24.05,6.47c-7.95,0-14.4,7.66-14.4,17.12s6.45,17.12,14.4,17.12,14.41-7.66,14.41-17.12S32,6.47,24.05,6.47Zm0,31.83c-6.84,0-12.38-6.58-12.38-14.71S17.21,8.87,24.05,8.87s12.39,6.59,12.39,14.72S30.89,38.3,24.05,38.3Z"/></g></g></svg>