<svg xmlns="http://www.w3.org/2000/svg" viewBox="0 0 52.46 67.31"><defs><style>.cls-1{fill:#f1f2f2;}</style></defs><g id="Layer_2" data-name="Layer 2"><g id="Layer_1-2" data-name="Layer 1"><g id="_0zdxZp.tif" data-name="0zdxZp.tif"><path class="cls-1" d="M49.72,0c3.36,1.68,3.62,3.52.81,5.83q-16.43,13.5-32.83,27c-2.51,2.08-4.85,4.3-7.3,6.43A4.87,4.87,0,0,1,6,40.55a1.71,1.71,0,0,0-1.31.68,4.63,4.63,0,0,0,.42,5.35c.47-.24.88-.43,1.27-.64a15.28,15.28,0,0,1,17.08,1.39c1.38,1.13,2.74,2.27,4.13,3.38.92.73,1,1.41,0,2.17q-8.44,6.93-16.87,13.88a1.73,1.73,0,0,1-2.59-.07c-1.38-1.2-2.83-2.33-4.24-3.5-4.46-3.68-5.2-9.14-1.83-13.55.38-.5.8-1,1.2-1.47-2.22-3-2.46-5.89-.2-8.86a1,1,0,0,0,.19-.82c-.73-1.73.22-3,1.65-4.1Q24.26,18.75,43.55,3.1C44.92,2,46.45,1,47.9,0ZM23.31,50.28c-1.32,1.11-2.63,2.22-3.95,3.31-2.09,1.74-4.17,3.49-6.34,5.15-.38.29-1.23.15-1.85.21a4,4,0,0,1,.07-1.56c.16-.39.71-.66,1.1-1l9.26-7.59c-4.52-3.93-11.56-3.59-16.25.69-4,3.61-3.71,9.48.11,11.85,1.37-.36,3-1.16,3.45-.84,1.88,1.31-1,1.77-1.06,2.61l1.49,1.49,15.85-13ZM14.48,32.46c.39-.28.63-.42.84-.59L48.94,4.23c.21-.18.56-.35.59-.55a2,2,0,0,0-.17-1.31c-.1-.14-1-.05-1.38.08a3.44,3.44,0,0,0-.92.71l-32.85,27c-.38.3-.72.64-1.18,1Zm-3.65-.15c-1.68,1.44-3.27,2.68-4.63,4-.39.39-.14,1.21-.18,1.83.75,0,1.74.17,2.19-.14,1.68-1.18,3.19-2.53,4.87-3.9Z"/></g></g></g></svg>