<svg xmlns="http://www.w3.org/2000/svg" viewBox="0 0 43.35 50"><defs><style>.cls-1{fill:#fff;}.cls-2{fill:#f1f2f2;}.cls-3{fill:#3c3e47;}</style></defs><g id="Layer_2" data-name="Layer 2"><g id="Layer_1-2" data-name="Layer 1"><g id="rJ8iJv.tif"><path class="cls-1" d="M16.64,25V3.74a8.39,8.39,0,0,0-.06-1A3.74,3.74,0,0,0,15.49.29.9.9,0,0,0,14.33.15Q8.25,3.59,2.17,7a1.13,1.13,0,0,1-.28.12,1.72,1.72,0,0,0-1.27,1A5.2,5.2,0,0,0,0,10.7V39.19a5.64,5.64,0,0,0,.43,2.32,1.94,1.94,0,0,0,1.49,1.37.67.67,0,0,1,.23.1L14.44,49.9a.7.7,0,0,0,.7,0,2.28,2.28,0,0,0,1.06-1.23,5.84,5.84,0,0,0,.44-2.39Zm17.2-7H23V30.5H33.85v5L43.35,24,33.91,12.55l-.07,0Zm-2.1,14.28-.3,0c-.72,0-1.45,0-2.17,0-.26,0-.33.1-.33.42q0,4.29,0,8.59c0,.13,0,.26,0,.42H20.18v4l.21,0h8.48a2.3,2.3,0,0,0,1.74-.85,4.74,4.74,0,0,0,1.14-3.28c0-3,0-5.95,0-8.93C31.76,32.51,31.75,32.41,31.74,32.29Zm-11.58-24H29v7.26h2.79c0-.12,0-.22,0-.31,0-1.11,0-2.21,0-3.31,0-1.37,0-2.75-.05-4.11-.08-1.64-1.17-3.62-3.14-3.55s-3.66,0-5.5,0H20.41c-.11,0-.25-.05-.25.19Z"/><path class="cls-2" d="M16.64,25V46.3a5.84,5.84,0,0,1-.44,2.39,2.28,2.28,0,0,1-1.06,1.23.7.7,0,0,1-.7,0L2.15,43a.67.67,0,0,0-.23-.1A1.94,1.94,0,0,1,.43,41.51,5.64,5.64,0,0,1,0,39.19V10.7A5.2,5.2,0,0,1,.62,8.08a1.72,1.72,0,0,1,1.27-1A1.13,1.13,0,0,0,2.17,7Q8.24,3.57,14.33.15a.9.9,0,0,1,1.16.14,3.74,3.74,0,0,1,1.09,2.45,8.39,8.39,0,0,1,.06,1Zm-5.18,1.77a2.71,2.71,0,0,0,2.41-3,2.75,2.75,0,0,0-2.39-3A2.75,2.75,0,0,0,9,23.8,2.74,2.74,0,0,0,11.46,26.77Z"/><path class="cls-2" d="M33.84,18V12.6l.07,0L43.35,24l-9.5,11.53v-5H23V18Z"/><path class="cls-2" d="M31.74,32.29c0,.12,0,.22,0,.32,0,3,0,6,0,8.93a4.74,4.74,0,0,1-1.14,3.28,2.3,2.3,0,0,1-1.74.85H20.39l-.21,0v-4h8.75c0-.16,0-.29,0-.42q0-4.31,0-8.59c0-.32.07-.42.33-.42.72,0,1.45,0,2.17,0Z"/><path class="cls-2" d="M20.16,8.32V4.51c0-.24.14-.19.25-.19h2.65c1.84,0,3.67.06,5.5,0s3.06,1.91,3.14,3.55c.07,1.36,0,2.74.05,4.11,0,1.1,0,2.2,0,3.31,0,.09,0,.19,0,.31H29V8.32Z"/><path class="cls-3" d="M11.46,26.77A2.74,2.74,0,0,1,9,23.8a2.75,2.75,0,0,1,2.44-3,2.75,2.75,0,0,1,2.39,3A2.71,2.71,0,0,1,11.46,26.77Z"/></g></g></g></svg>